<svg width="16" height="15" fill="none" xmlns="http://www.w3.org/2000/svg"><path d="M.709 6.498l4.718-2.813a.469.469 0 000-.805L.71.067A.469.469 0 000 .469v5.626a.47.47 0 00.709.403zm.228-5.204l3.335 1.988L.937 5.27V1.294zM15.53 7.535H.47a.469.469 0 00-.47.469v1.875c0 .259.21.469.469.469H15.53c.26 0 .469-.21.469-.47V8.005a.469.469 0 00-.469-.469zm-.468 1.875H.937v-.937h14.125v.937zm.468 1.903H.47a.469.469 0 00-.47.467v1.875c0 .259.21.469.469.469H15.53c.26 0 .469-.21.469-.469V11.78a.469.469 0 00-.469-.469zm-.468 1.874H.937v-.937h14.125v.937zm.47-9.437H7.094a.469.469 0 00-.469.469v1.875c0 .258.21.468.469.468h8.438c.258 0 .468-.21.468-.468V4.219a.469.469 0 00-.468-.469zm-.47 1.875h-7.5v-.938h7.5v.938zM15.532 0H7.094a.469.469 0 00-.469.469v1.875c0 .258.21.468.469.468h8.438c.258 0 .468-.21.468-.468V.469A.469.469 0 0015.532 0zm-.47 1.875h-7.5V.937h7.5v.938z" fill="#171919"/></svg>