<svg width="19" height="19" fill="none" xmlns="http://www.w3.org/2000/svg"><path d="M16.29 18.485H2.714a.257.257 0 01-.257-.257V.768a.257.257 0 01.257-.256H16.29a.257.257 0 01.257.256v17.46a.257.257 0 01-.257.257zM2.97 17.97h13.063V1.025H2.971v16.946z" fill="#171919"/><path d="M14.635 4.431H7.446a.257.257 0 110-.513h7.19a.257.257 0 010 .513zm0 3.465H7.446a.257.257 0 110-.513h7.19a.257.257 0 010 .513zm0 3.723H7.446a.257.257 0 010-.514h7.19a.257.257 0 110 .514zm0 3.465H7.446a.257.257 0 110-.514h7.19a.257.257 0 010 .514zM5.061 5.127a.952.952 0 110-1.905.952.952 0 010 1.905zm0-1.39a.439.439 0 100 .876.439.439 0 000-.877zm0 4.855a.952.952 0 110-1.904.952.952 0 010 1.904zm0-1.391a.439.439 0 100 .877.439.439 0 000-.877zm0 5.113a.953.953 0 11.001-1.905.953.953 0 010 1.905zm0-1.39a.438.438 0 100 .876.438.438 0 000-.876zm0 4.856a.951.951 0 110-1.903.951.951 0 010 1.902zm0-1.391a.44.44 0 100 .878.44.44 0 000-.878z" fill="#171919"/></svg>